HIERARCHY
ROOT Hips
{
     OFFSET 17.68150 94.54450 -26.64510
     CHANNELS 6 Xposition Yposition Zposition Zrotation Xrotation Yrotation
     JOINT Spine
     {
          OFFSET -0.00000 11.89050 -0.00000
          CHANNELS 3 Zrotation Xrotation Yrotation
          JOINT Spine1
          {
               OFFSET -0.00000 25.65740 0.12766
               CHANNELS 3 Zrotation Xrotation Yrotation
               JOINT HEad
               {
                    OFFSET 0.00000 8.73416 0.01134
                    CHANNELS 3 Zrotation Xrotation Yrotation
                    End Site
                    {
                         OFFSET -0.29000 12.77420 2.51395
                    }
               }
               JOINT LeftShoulder1
               {
                    OFFSET 8.99000 -0.36225 -0.22000
                    CHANNELS 3 Zrotation Xrotation Yrotation
                    JOINT LeftArm
                    {
                         OFFSET 10.28270 -0.00338 0.32212
                         CHANNELS 3 Zrotation Xrotation Yrotation
                         JOINT LeftForeArm
                         {
                              OFFSET 32.76690 0.09914 -1.42434
                              CHANNELS 3 Zrotation Xrotation Yrotation
                              JOINT LeftHand
                              {
                                   OFFSET 27.56430 0.08536 1.02216
                                   CHANNELS 3 Zrotation Xrotation Yrotation
                                   End Site
                                   {
                                        OFFSET 16.74430 -0.60000 1.50291
                                   }
                              }
                         }
                    }
               }
               JOINT RightShoulder
               {
                    OFFSET -8.99000 -0.36225 -0.22000
                    CHANNELS 3 Zrotation Xrotation Yrotation
                    JOINT RightArm
                    {
                         OFFSET -10.28270 -0.00338 0.32212
                         CHANNELS 3 Zrotation Xrotation Yrotation
                         JOINT RightForeArm
                         {
                              OFFSET -32.89710 0.09914 -1.42434
                              CHANNELS 3 Zrotation Xrotation Yrotation
                              JOINT RightHand
                              {
                                   OFFSET -27.49210 0.08536 1.02216
                                   CHANNELS 3 Zrotation Xrotation Yrotation
                                   End Site
                                   {
                                        OFFSET -16.63120 -0.60000 1.50291
                                   }
                              }
                         }
                    }
               }
          }
     }
     JOINT LeftUpLeg
     {
          OFFSET 8.94580 -8.66707 0.10165
          CHANNELS 3 Zrotation Xrotation Yrotation
          JOINT LeftLeg
          {
               OFFSET 0.00000 -44.42270 1.37270
               CHANNELS 3 Zrotation Xrotation Yrotation
               JOINT LeftFoot
               {
                    OFFSET -0.25355 -42.09240 -1.46059
                    CHANNELS 3 Zrotation Xrotation Yrotation
                    JOINT LeftToes
                    {
                         OFFSET -0.04000 -4.41509 8.49910
                         CHANNELS 3 Zrotation Xrotation Yrotation
                         End Site
                         {
                              OFFSET 0.08000 -0.04745 9.77979
                         }
                    }
               }
          }
     }
     JOINT RightUpLeg
     {
          OFFSET -8.94580 -8.66707 0.10165
          CHANNELS 3 Zrotation Xrotation Yrotation
          JOINT RightLeg
          {
               OFFSET -0.00000 -44.42270 1.37270
               CHANNELS 3 Zrotation Xrotation Yrotation
               JOINT RightFoot
               {
                    OFFSET 0.25355 -42.09240 -1.46059
                    CHANNELS 3 Zrotation Xrotation Yrotation
                    JOINT RightToes
                    {
                         OFFSET 0.04000 -4.41509 8.49910
                         CHANNELS 3 Zrotation Xrotation Yrotation
                         End Site
                         {
                              OFFSET -0.08000 -0.13745 9.77979
                         }
                    }
               }
          }
     }
}
MOTION
Frames: 15
Frame Time: 0.01667
17.68150 94.54450 -26.64510 -10.79870 -17.67080 -32.34580 -2.99703 13.63990 -2.16422 -3.50083 27.43600 -3.94982 -0.44250 -3.09231 19.88230 -0.00000 0.00000 -0.00000 -89.58640 -59.26800 -78.05710 -18.39970 29.20110 -79.54180 11.21680 9.19682 -3.39800 6.39049 -0.05990 -3.79431 87.18230 8.09299 76.42100 -14.78540 25.32990 105.22400 20.92360 10.18600 -2.80567 25.81750 -1.41522 -22.60690 -35.00300 8.17731 80.04520 -3.48764 11.88190 0.50538 7.32011 -15.83580 -64.32740 -23.46430 13.10600 18.56470 36.56840 13.16360 -24.39660 -27.03580 -7.30677 -0.08374 0.04620 0.00053 0.66264 
17.63030 94.64960 -26.48370 -10.41630 -17.55070 -31.86820 -2.98819 13.54030 -2.12594 -3.53009 27.20970 -3.84685 -0.59385 -2.98877 19.58910 -0.00000 0.00000 -0.00000 -88.83500 -58.66580 -77.46180 -18.22420 29.12500 -79.69740 11.25590 9.19428 -3.39718 6.44247 -0.03342 -3.52041 87.15350 7.79748 76.60890 -14.98290 25.28850 105.36200 20.67520 10.13100 -3.08279 25.55940 -1.88318 -22.16580 -35.03030 8.05548 80.23460 -3.88524 11.20360 0.55418 7.57724 -15.05910 -63.92210 -23.70530 13.32640 18.58840 36.49810 12.55710 -24.29060 -26.74270 -7.41613 -0.11168 0.04620 0.00053 0.66264 
17.60150 94.71150 -26.27300 -10.05150 -17.38210 -31.27040 -2.89028 13.42920 -2.11980 -3.49905 26.96620 -3.77620 -0.71047 -2.90760 19.18360 -0.00000 0.00000 -0.00000 -87.95290 -57.95170 -76.82790 -18.04100 28.92800 -79.74990 11.33450 9.18497 -3.44104 6.48283 -0.00285 -3.20987 87.20260 7.46573 76.80910 -15.19810 25.25480 105.55500 20.33610 10.08270 -3.32639 25.33080 -2.41444 -21.84390 -34.98890 7.82420 80.32340 -4.35309 10.38460 0.60498 7.91481 -14.03120 -63.49360 -23.88330 13.53160 18.47720 36.42760 12.07930 -24.25200 -26.39000 -7.57175 -0.15037 0.04620 0.00053 0.66264 
17.59420 94.71740 -26.00940 -9.72415 -17.15370 -30.56690 -2.71139 13.30560 -2.12311 -3.39985 26.70260 -3.70805 -0.81167 -2.88753 18.65620 -0.00000 0.00000 -0.00000 -86.96090 -57.09960 -76.15940 -17.80230 28.64490 -79.74370 11.43970 9.17487 -3.47333 6.49705 0.01992 -2.98150 87.31360 7.16285 77.00060 -15.44500 25.20520 105.79200 19.90080 10.04950 -3.49014 25.15790 -3.03229 -21.68590 -34.89140 7.49413 80.39740 -4.86876 9.49327 0.65373 8.32804 -12.75370 -63.05450 -24.02070 13.72460 18.34680 36.44430 11.64070 -24.35710 -25.97490 -7.76641 -0.19737 0.04620 0.00053 0.66264 
17.61080 94.66200 -25.69260 -9.45121 -16.88900 -29.78670 -2.47104 13.18220 -2.11973 -3.24963 26.44480 -3.62153 -0.86870 -2.99119 18.06260 -0.00000 0.00000 -0.00000 -85.71920 -56.03200 -75.37390 -17.38680 28.13510 -79.75880 11.51560 9.17265 -3.44210 6.45380 0.03297 -2.85571 87.52360 6.91950 77.19680 -15.75420 25.13870 106.06300 19.40630 10.02910 -3.58582 25.03860 -3.71228 -21.68160 -34.73770 7.08867 80.51400 -5.42961 8.56373 0.69938 8.79241 -11.27010 -62.56610 -24.14680 13.92900 18.30320 36.59060 11.18310 -24.65110 -25.51550 -8.01244 -0.25486 0.04620 0.00053 0.66264 
17.65020 94.55110 -25.32340 -9.23363 -16.63530 -28.95330 -2.19037 13.07880 -2.11040 -3.07284 26.23430 -3.52205 -0.86131 -3.22215 17.49050 -0.00000 0.00000 -0.00000 -84.21210 -54.73110 -74.49460 -16.72080 27.28750 -79.84210 11.48520 9.18527 -3.32892 6.29510 0.04255 -2.77371 87.91140 6.74607 77.43420 -16.14540 25.06860 106.35800 18.93640 10.01180 -3.66926 24.94650 -4.39518 -21.74770 -34.51840 6.64741 80.69710 -6.06475 7.59273 0.74401 9.29283 -9.60124 -62.01440 -24.27690 14.17940 18.36590 36.83320 10.72690 -25.09850 -25.03960 -8.34188 -0.32950 0.04620 0.00053 0.66264 
17.70430 94.39610 -24.90270 -9.05915 -16.42810 -28.07130 -1.89084 13.00080 -2.10067 -2.89326 26.08390 -3.42110 -0.81088 -3.49020 16.98520 -0.00000 0.00000 -0.00000 -82.58230 -53.28270 -73.63320 -15.89130 26.16020 -79.95950 11.30620 9.21340 -3.15217 6.03199 0.05487 -2.66947 88.48470 6.62998 77.73010 -16.58290 25.00180 106.65400 18.60390 9.98903 -3.79370 24.86330 -5.02423 -21.75650 -34.23610 6.20594 80.94900 -6.77211 6.57195 0.78438 9.80059 -7.82426 -61.42380 -24.40690 14.51220 18.47060 37.10560 10.31290 -25.62280 -24.63220 -8.75426 -0.42083 0.04620 0.00053 0.66264 
17.76530 94.20550 -24.43060 -8.91023 -16.26380 -27.12880 -1.59315 12.93160 -2.08538 -2.72085 25.95880 -3.31486 -0.76147 -3.67317 16.49960 -0.00000 0.00000 -0.00000 -81.03470 -51.82000 -72.89930 -15.09740 24.96940 -80.04090 11.01310 9.25149 -2.93838 5.76735 0.07162 -2.51310 89.14110 6.51436 78.06630 -17.00670 24.94030 106.93300 18.47720 9.95980 -3.96557 24.78790 -5.60078 -21.62250 -33.91870 5.79741 81.28450 -7.51521 5.50315 0.81355 10.27740 -6.05925 -60.81840 -24.52840 14.95270 18.53430 37.36800 9.91930 -26.18910 -24.47580 -9.17612 -0.51480 0.04620 0.00053 0.66264 
17.88620 93.79200 -23.81750 -9.11953 -15.95960 -26.19690 -0.52217 12.77470 -2.14835 -2.38601 25.78490 -3.18222 -0.73411 -3.72463 15.93220 -0.00000 0.00000 -0.00000 -79.71260 -50.42160 -72.34400 -14.48010 23.92780 -80.04870 10.69570 9.29125 -2.70962 5.59762 0.09142 -2.31086 89.76600 6.32530 78.42240 -17.39590 24.88800 107.19500 18.53440 9.92813 -4.15605 24.80850 -6.98775 -21.14760 -33.73190 7.20801 81.93120 -9.16041 4.20933 0.90796 10.70760 -4.38100 -60.24000 -24.25550 15.26400 18.26980 37.72690 10.16170 -26.86360 -24.66050 -9.84199 -0.66958 0.04620 0.00053 0.66264 
18.01810 93.29400 -23.11480 -9.33680 -15.69970 -25.20160 0.56892 12.57240 -2.17677 -2.10969 25.56290 -3.00625 -0.70630 -3.72206 15.21620 -0.00000 0.00000 -0.00000 -78.60750 -49.06540 -71.93540 -14.03610 23.08200 -79.98800 10.42260 9.32612 -2.49277 5.51732 0.11290 -2.08107 90.34210 6.03389 78.80280 -17.77760 24.84210 107.45800 18.70740 9.89444 -4.35727 24.74860 -8.57889 -20.55990 -33.62940 9.11354 82.86350 -11.01200 2.91083 0.98437 11.09780 -2.80679 -59.73110 -23.99480 15.61070 17.94750 38.12570 10.55480 -27.70620 -25.23710 -10.53210 -0.84297 0.04620 0.00053 0.66264 
18.16220 92.75140 -22.32870 -9.54562 -15.48100 -24.14150 1.64141 12.33370 -2.16765 -1.81711 25.29000 -2.79169 -0.64466 -3.78062 14.36810 -0.00000 0.00000 -0.00000 -77.63930 -47.70380 -71.62050 -13.68820 22.36700 -79.88640 10.20390 9.35452 -2.30415 5.44410 0.13604 -1.82945 90.94180 5.67646 79.23950 -18.19740 24.78990 107.75400 18.94570 9.85201 -4.60520 24.62810 -10.28260 -19.88850 -33.62390 11.28900 84.06080 -12.96050 1.73192 1.03987 11.45480 -1.27176 -59.20240 -23.76550 16.02630 17.65950 38.54080 10.96950 -28.66280 -25.93800 -11.23300 -1.03090 0.04620 0.00053 0.66264 
18.32260 92.20890 -21.47580 -9.76858 -15.27030 -23.01000 2.69270 12.06960 -2.13061 -1.50355 24.98920 -2.56853 -0.54011 -3.94367 13.45790 -0.00000 0.00000 -0.00000 -76.76150 -46.33290 -71.38690 -13.35720 21.73560 -79.78030 10.00910 9.38014 -2.12441 5.30299 0.16056 -1.55751 91.64310 5.33080 79.78780 -18.70270 24.71580 108.14200 19.23270 9.78556 -4.98420 24.52330 -12.00630 -19.06860 -33.71140 13.52320 85.42200 -14.93710 0.79217 1.08730 11.76900 0.34172 -58.44980 -23.51290 16.51790 17.42300 38.92820 11.35360 -29.58290 -26.32790 -12.01870 -1.23684 0.04620 0.00053 0.66264 
18.49340 91.71770 -20.57600 -9.97576 -15.07850 -21.78210 3.61490 11.80270 -2.06609 -1.16302 24.67870 -2.35824 -0.40260 -4.18993 12.54180 -0.00000 0.00000 -0.00000 -75.92900 -44.94850 -71.22270 -12.96980 21.14550 -79.70380 9.79822 9.40782 -1.92178 5.04813 0.18435 -1.28023 92.47700 5.06458 80.49960 -19.33360 24.59990 108.68500 19.56220 9.67599 -5.59438 24.45880 -13.57650 -18.00170 -33.85810 15.52340 86.83590 -16.81950 0.15210 1.13844 12.02840 2.12901 -57.35270 -23.23670 17.12170 17.26960 39.24110 11.63440 -30.35600 -26.11290 -12.97380 -1.46126 0.04620 0.00053 0.66264 
18.66470 91.31610 -19.65280 -10.10230 -14.92200 -20.43410 4.27718 11.55040 -1.95761 -0.81222 24.35210 -2.15436 -0.24758 -4.46067 11.61080 -0.00000 0.00000 -0.00000 -75.02910 -43.49210 -71.05200 -12.50330 20.50650 -79.67100 9.54860 9.43849 -1.69653 4.68768 0.20593 -1.00583 93.40440 4.86555 81.38230 -20.09190 24.42640 109.39500 19.90560 9.52264 -6.42682 24.40410 -14.84470 -16.61310 -34.01380 17.05060 88.22460 -18.41340 -0.22536 1.19103 12.24200 4.12227 -55.99770 -22.99140 17.89690 17.26300 39.45500 11.62230 -30.99810 -25.40060 -14.00410 -1.67122 0.04620 0.00053 0.66264 
18.83280 91.03500 -18.72910 -10.03270 -14.81320 -18.92780 4.52676 11.31770 -1.78151 -0.51093 23.96790 -1.93581 -0.08018 -4.64045 10.59400 -0.00000 0.00000 -0.00000 -73.92130 -41.89140 -70.76580 -12.04810 19.73630 -79.66430 9.26346 9.47000 -1.47079 4.33146 0.22665 -0.72115 94.30600 4.63850 82.39640 -20.93840 24.19630 110.20700 20.21920 9.35195 -7.33007 24.23250 -15.69630 -14.91000 -34.10860 17.89730 89.45650 -19.38870 -0.42534 1.22322 12.42870 6.17088 -54.67350 -22.90710 18.91070 17.47200 39.56090 11.04320 -31.61110 -24.61300 -14.78240 -1.80468 0.04620 0.00053 0.66264 
